<svg xmlns="http://www.w3.org/2000/svg" xmlns:xlink="http://www.w3.org/1999/xlink" width="1000" height="200" viewBox="0 0 1000 200"><defs><clipPath id="b"><rect width="1000" height="200"/></clipPath></defs><g id="a" clip-path="url(#b)"><g transform="translate(-248 -262)"><path d="M100.061-100.061H65.112V0H37.427V-100.061H2.649v-22.473h97.412ZM151.153,0h-27.6V-122.534h27.6Z" transform="translate(955.561 428)" fill="#fff"/><path d="M41.614,0h-27.6V-122.534h27.6Zm135.43-8.2Q159.1,2.136,132.439,2.136q-29.565,0-46.613-16.364T68.78-59.3q0-28.882,18.628-47.083t49.561-18.2q19.482,0,34.351,5.383v25.891q-14.185-8.2-34.692-8.2-17.175,0-27.985,11.151T97.833-60.583q0,18.884,9.7,29.224t26.19,10.339q9.912,0,15.723-2.82V-47.766H124.92V-69.812h52.124ZM280.858,0H207.884V-122.534h27.6V-22.388h45.374Z" transform="translate(375.592 428)" fill="#fff"/><path d="M1089.169,331.291s27.572-123.373,61.791-123.373,61.049,123.373,61.049,123.373l-29.641-2.948s-16.7-85.171-31.407-85.171-33.316,85.171-33.316,85.171Z" transform="translate(-401.995 97.367)" fill="#fff"/><path d="M80.078-577.2v-123H123.65q65.53,0,65.53,59.955,0,28.734-17.884,45.888T123.65-577.2Zm0-100.439v77.967h41.428q18.012,0,28.262-10.807t10.25-29.42q0-17.583-10.164-27.662t-28.519-10.078Z" transform="translate(176.67 1005.856)" fill="#fff"/><path d="M0,123V0H43.572Q109.1,0,109.1,59.955q0,28.734-17.884,45.888T43.572,123ZM0,22.558v77.967H41.428q18.012,0,28.262-10.807T79.94,60.3q0-17.583-10.164-27.662T41.256,22.558Z" transform="translate(938.463 428.658) rotate(180)" fill="#fff"/><path d="M0,123V0H43.572Q109.1,0,109.1,59.955q0,28.734-17.884,45.888T43.572,123ZM0,22.558v77.967H41.428q18.012,0,28.262-10.807T79.94,60.3q0-17.583-10.164-27.662T41.256,22.558Z" transform="translate(1240.098 428.658) rotate(180)" fill="#fff"/></g></g></svg>