<svg xmlns="http://www.w3.org/2000/svg" fill="#fff" width="2001" height="255.606" viewBox="0 0 2001 255.606"><g transform="translate(-115.92 -907.499)"><path d="M-6219.362-4574.4c-41.262,0-70.069-9.754-94.289-34.264-22.883-23.152-37.006-48.282-38.382-87.977-.076-1.083-.11-4.405-.1-4.933,0-.008,0-.018.022-.035-.018-.015-.022-.023-.022-.032s.014-.026.05-.059c-.036-.032-.05-.051-.05-.06a.055.055,0,0,1,.022-.032c-.018-.019-.022-.026-.022-.035-.009-.522.027-3.855.1-4.933,1.372-39.695,15.5-64.825,38.382-87.977,24.221-24.51,53.027-34.264,94.289-34.264h85.356v47.751h-85.356a81.686,81.686,0,0,0-57.6,23.84c-7.069,7.332-22.7,22.444-22.721,55.709.023,33.261,15.651,48.376,22.721,55.708a81.687,81.687,0,0,0,57.6,23.839h85.355v47.751Zm-620.806,0c-41.262,0-70.069-9.754-94.29-34.264-22.883-23.152-37.006-48.282-38.382-87.977-.075-1.083-.11-4.405-.1-4.933,0-.008,0-.018.023-.035-.02-.015-.023-.023-.023-.032s.015-.026.051-.059c-.037-.032-.051-.051-.051-.06a.059.059,0,0,1,.023-.031c-.02-.019-.023-.027-.023-.036-.009-.522.027-3.855.1-4.933,1.373-39.695,15.5-64.825,38.382-87.977,24.221-24.51,53.028-34.264,94.29-34.264h85.356v47.751h-85.356a81.687,81.687,0,0,0-57.6,23.84c-7.069,7.332-22.7,22.444-22.721,55.709.023,33.261,15.651,48.376,22.722,55.708a81.691,81.691,0,0,0,57.6,23.839h85.356v47.751Zm-1293.838,0v-47.751h85.356a81.691,81.691,0,0,0,57.6-23.839c7.068-7.337,22.7-22.445,22.715-55.708-.018-33.262-15.646-48.377-22.716-55.709a81.685,81.685,0,0,0-57.6-23.84H-8134V-4829h85.356c41.262,0,70.069,9.754,94.288,34.264,22.884,23.152,37.006,48.282,38.383,87.977.071,1.078.11,4.405.1,4.933,0,.008-.008.018-.026.03.02.019.026.026.026.037s-.013.026-.049.06c.036.026.049.049.049.059a.067.067,0,0,1-.026.032c.02.019.026.026.026.035,0,.517-.03,3.855-.1,4.933-1.372,39.695-15.5,64.825-38.383,87.977-24.22,24.51-53.026,34.264-94.288,34.264Zm504.021-.11c-37.611,0-62.228-3.587-83.765-25.565s-32.312-61.134-32.312-97.726q0-58.457,36.328-94.819c24.221-24.248,50.684-36.368,89.321-36.368h90.068v47.675h-85.627c-23.023,0-41.6,9.239-55.734,23.627s-21.521,38.438-21.2,60.93,6.671,44.785,20,58.773,31.29,15.542,53.857,15.542h40.447v-65.925l48.255.221.249,113.636Zm1168.061-.06V-4829h55.391v254.432Zm-1398.446,0V-4829h55.392v254.432Zm1214.571-.018v-206.63h-64.611V-4829h184.964v47.783H-6590.4v206.634Zm-427.676,0-42.218-166.709s-4.388-20.687-18.36-21.132c-13.975.44-18.363,21.132-18.363,21.132l-42.223,166.71h-59.839s37.041-127.512,54.87-192.977c17.034-62.521,65.551-61.437,65.551-61.437s48.512-1.083,65.546,61.437c17.829,65.463,54.87,192.977,54.87,192.977Zm-389.548-.167v-253.992h55.22v206.92h100.715v47.071Z" transform="translate(8250.426 5737)" stroke="#fff" stroke-miterlimit="10" stroke-width="1"/></g></svg>
